<svg width="800" height="217" viewBox="0 0 800 217" fill="none" xmlns="http://www.w3.org/2000/svg">
<path d="M110.002 202.269C97.968 204.382 85.7219 205.016 73.0539 206.703L34.4148 93.5344V211.56C22.3805 212.827 11.4016 214.516 0 216.205V0H32.0938L76.0094 122.673V0H110.002V202.269ZM176.511 79.1766C189.602 79.1766 209.66 78.543 221.695 78.543V112.324C206.703 112.324 189.18 112.324 176.511 112.958V163.209C196.359 161.943 216.205 160.252 236.262 159.619V192.132L142.728 199.523V0H236.262V33.782H176.511V79.1766ZM361.889 33.7828H326.841V189.18C315.439 189.18 304.038 189.18 293.06 189.601V33.7828H258.012V0H361.891L361.889 33.7828ZM416.784 76.8547H463.024V110.636H416.784V187.28H383.634V0H478.015V33.782H416.784V76.8547ZM532.91 157.72C552.124 158.141 571.548 159.621 590.34 160.675V194.035C560.148 192.134 529.955 190.236 499.129 189.601V0H532.91V157.72ZM618.843 196.358C629.611 196.992 641.013 197.626 651.991 198.891V0H618.843V196.358ZM800 0L757.138 102.824L800 216.205C787.33 214.516 774.662 212.193 761.994 210.081L737.714 147.586L713.013 205.016C700.765 202.902 688.941 202.269 676.698 200.58L720.191 101.556L680.919 0H717.233L739.402 56.7961L763.051 0H800V0Z" fill="#B9090B"/>
</svg>
